<?xml version="1.0" standalone="no"?>
<!DOCTYPE svg PUBLIC "-//W3C//DTD SVG 20010904//EN"
 "http://www.w3.org/TR/2001/REC-SVG-20010904/DTD/svg10.dtd">
<svg version="1.0" xmlns="http://www.w3.org/2000/svg"
 width="691.000000pt" height="742.000000pt" viewBox="0 0 691.000000 742.000000"
 preserveAspectRatio="xMidYMid meet">

<g transform="translate(0.000000,742.000000) scale(0.100000,-0.100000)"
fill="#000000" stroke="none">
<path d="M3422 7306 c-159 -83 -299 -358 -396 -777 l-27 -116 -135 -26 c-180
-36 -291 -68 -459 -134 -302 -119 -620 -318 -850 -532 -472 -439 -763 -1001
-850 -1647 -34 -247 -19 -607 35 -876 80 -392 275 -809 525 -1123 369 -463
908 -810 1474 -949 75 -19 163 -37 194 -41 32 -4 59 -11 62 -15 2 -4 24 -85
49 -181 111 -436 254 -681 426 -729 240 -67 456 253 584 866 l22 109 60 18
c346 108 669 278 940 494 477 381 821 944 947 1548 44 212 52 296 51 560 0
206 -4 274 -22 383 -96 593 -350 1091 -766 1507 -316 315 -664 528 -1086 665
-63 21 -117 44 -121 51 -4 8 -24 86 -44 174 -104 445 -243 711 -409 780 -54
23 -152 19 -204 -9z m183 -393 c52 -108 158 -473 142 -489 -3 -3 -60 -1 -125
5 -66 6 -163 11 -215 11 l-95 0 38 148 c56 214 104 339 158 411 l25 34 19 -24
c10 -13 34 -56 53 -96z m115 -5990 c-63 -241 -130 -416 -175 -453 -15 -12 -19
-12 -32 5 -50 67 -114 234 -168 435 -40 151 -49 140 113 141 75 1 164 5 197 9
117 14 109 31 65 -137z"/>
</g>
</svg>
